<svg xmlns="http://www.w3.org/2000/svg" xmlns:xlink="http://www.w3.org/1999/xlink" viewBox="0 0 313.24 176.38"><defs><style>.cls-1{fill:url(#未命名的渐变_26);}.cls-2,.cls-3,.cls-4,.cls-5{fill:#34d6bf;}.cls-2{opacity:0.7;}.cls-3{opacity:0.4;}.cls-4{opacity:0.15;}</style><linearGradient id="未命名的渐变_26" x1="144.71" y1="50.8" x2="144.71" y2="320.8" gradientUnits="userSpaceOnUse"><stop offset="0" stop-color="#dff7f2"/><stop offset="0.14" stop-color="#d8f6ee"/><stop offset="0.41" stop-color="#d0f4eb"/><stop offset="1" stop-color="#cef4ea"/></linearGradient></defs><title>资源 19</title><g id="图层_2" data-name="图层 2"><g id="图层_1-2" data-name="图层 1"><path class="cls-1" d="M144.71,50.8A135,135,0,0,0,10,176.38H279.38A135,135,0,0,0,144.71,50.8Z"/><circle class="cls-2" cx="276.99" cy="33.52" r="9"/><circle class="cls-2" cx="42.06" cy="12.54" r="6"/><circle class="cls-3" cx="305.74" cy="92.54" r="7.5"/><circle class="cls-3" cx="24.5" cy="24.52" r="9"/><circle class="cls-3" cx="10.5" cy="154.47" r="10.5"/><circle class="cls-4" cx="294.99" cy="100.04" r="10.5"/><path class="cls-5" d="M144.72,34.54A17.27,17.27,0,1,1,162,17.27,17.29,17.29,0,0,1,144.72,34.54Zm0-30a12.77,12.77,0,1,0,12.77,12.77A12.78,12.78,0,0,0,144.72,4.5Z"/><path class="cls-5" d="M86.82,150a17.27,17.27,0,1,1,17.27-17.27A17.29,17.29,0,0,1,86.82,150Zm0-30a12.77,12.77,0,1,0,12.76,12.77A12.78,12.78,0,0,0,86.82,120Z"/><path class="cls-5" d="M202.6,149.88a17.27,17.27,0,1,1,17.27-17.27A17.3,17.3,0,0,1,202.6,149.88Zm0-30a12.77,12.77,0,1,0,12.76,12.77A12.79,12.79,0,0,0,202.6,119.84Z"/><rect class="cls-5" x="66.3" y="72.91" width="98.78" height="4.51" transform="translate(-3.34 144.91) rotate(-63.38)"/><rect class="cls-5" x="171.34" y="25.67" width="4.51" height="98.34" transform="translate(-15.13 85.76) rotate(-26.63)"/><rect class="cls-5" x="102.37" y="130.47" width="84.84" height="4.5"/></g></g></svg>