<svg xmlns="http://www.w3.org/2000/svg" xmlns:xlink="http://www.w3.org/1999/xlink" viewBox="0 0 313.24 176.63"><defs><style>.cls-1{fill:url(#未命名的渐变_26);}.cls-2,.cls-3,.cls-4,.cls-5{fill:#34d6bf;}.cls-2{opacity:0.7;}.cls-3{opacity:0.4;}.cls-4{opacity:0.15;}</style><linearGradient id="未命名的渐变_26" x1="144.44" y1="51.05" x2="144.44" y2="321.05" gradientUnits="userSpaceOnUse"><stop offset="0" stop-color="#dff7f2"/><stop offset="0.14" stop-color="#d8f6ee"/><stop offset="0.41" stop-color="#d0f4eb"/><stop offset="1" stop-color="#cef4ea"/></linearGradient></defs><title>资源 20</title><g id="图层_2" data-name="图层 2"><g id="图层_1-2" data-name="图层 1"><path class="cls-1" d="M144.44,51.05A135,135,0,0,0,9.77,176.63H279.11A135,135,0,0,0,144.44,51.05Z"/><circle class="cls-2" cx="276.99" cy="33.91" r="9"/><circle class="cls-2" cx="42.06" cy="12.93" r="6"/><circle class="cls-3" cx="305.74" cy="92.92" r="7.5"/><circle class="cls-3" cx="24.5" cy="24.91" r="9"/><circle class="cls-3" cx="10.5" cy="154.86" r="10.5"/><circle class="cls-4" cx="294.99" cy="100.42" r="10.5"/><path class="cls-5" d="M145,27.28A42.52,42.52,0,0,0,126.33,108v18.37a12.69,12.69,0,0,0,7.56,11.6v4A8.07,8.07,0,0,0,142,150h6.18a8.07,8.07,0,0,0,8.08-8.07v-4a12.69,12.69,0,0,0,7.55-11.6V108A42.52,42.52,0,0,0,145,27.28ZM148.06,144h-6.19a2.1,2.1,0,0,1-2.06-2.06v-2.84h10.31v2.84a2.1,2.1,0,0,1-2.06,2.06Zm2.83-10.91H139a6.71,6.71,0,0,1-6.7-6.7v-7.21h25.34v7.21a6.84,6.84,0,0,1-6.79,6.7ZM145,89.29l-6.44-11.77h12.79L145,89.29Zm14.42,14-1.8.78v9.1H148V95.47a4.55,4.55,0,0,0,1.2-1.38L157.93,78a4.1,4.1,0,0,0-.08-4.21,4.85,4.85,0,0,0-4.12-2.23H136.12A4.83,4.83,0,0,0,132,73.74a4.12,4.12,0,0,0-.09,4.21l8.85,16.23a4.65,4.65,0,0,0,1.2,1.37v17.61h-9.62v-9.1l-1.8-.78a36.5,36.5,0,1,1,51-33.49,36.8,36.8,0,0,1-22.16,33.49Zm-86.91-42H88.42v6.15H72.48Zm32-29.35L93.25,20.67l4.36-4.35,11.27,11.27Zm75.64-4.36,11.28-11.27,4.35,4.35L184.52,32l-4.36-4.36Zm20.3,33.71H216.4v6.15H200.46ZM141.36,0h6.16V15.94h-6.16Z"/></g></g></svg>