<svg xmlns="http://www.w3.org/2000/svg" xmlns:xlink="http://www.w3.org/1999/xlink" viewBox="0 0 313.24 176.51"><defs><style>.cls-1{fill:url(#未命名的渐变_26);}.cls-2,.cls-3,.cls-4,.cls-5{fill:#34d6bf;}.cls-2{opacity:0.7;}.cls-3{opacity:0.4;}.cls-4{opacity:0.15;}</style><linearGradient id="未命名的渐变_26" x1="148.38" y1="50.93" x2="148.38" y2="320.93" gradientUnits="userSpaceOnUse"><stop offset="0" stop-color="#dff7f2"/><stop offset="0.14" stop-color="#d8f6ee"/><stop offset="0.41" stop-color="#d0f4eb"/><stop offset="1" stop-color="#cef4ea"/></linearGradient></defs><title>资源 21</title><g id="图层_2" data-name="图层 2"><g id="图层_1-2" data-name="图层 1"><path class="cls-1" d="M148.38,50.93A135,135,0,0,0,13.71,176.51H283.05A135,135,0,0,0,148.38,50.93Z"/><circle class="cls-2" cx="276.99" cy="33.79" r="9"/><circle class="cls-2" cx="42.06" cy="12.81" r="6"/><circle class="cls-3" cx="305.74" cy="92.8" r="7.5"/><circle class="cls-3" cx="24.5" cy="24.79" r="9"/><circle class="cls-3" cx="10.5" cy="154.74" r="10.5"/><circle class="cls-4" cx="294.99" cy="100.3" r="10.5"/><path class="cls-5" d="M195.69,53.76a13.09,13.09,0,0,0-10.34,5.11,13,13,0,0,0-20.61,0,13,13,0,0,0-10.33-5.11,12.79,12.79,0,0,0-7.53,2.41V29.68A13.08,13.08,0,1,0,120.77,28a11.92,11.92,0,0,0,0,1.69V83.22A60.49,60.49,0,0,1,115,80c-8.74-5.49-16.93-5.16-22.54.39a16.49,16.49,0,0,0,0,23c1.05,1.1,25.89,26.66,35,34.9A37.51,37.51,0,0,0,152.59,150h20.62A35.84,35.84,0,0,0,209,114.22V66.78a13.09,13.09,0,0,0-13.14-13Zm7.58,60.46A30.28,30.28,0,0,1,173,144.5H152.37a32.48,32.48,0,0,1-21.49-10.28c-8.9-8.13-34.41-34.4-34.68-34.68a11,11,0,0,1,0-15.28c5-5,12-1.87,15.77.39a59.91,59.91,0,0,0,10.61,5.49,2.52,2.52,0,0,0,2.48-.33,2.59,2.59,0,0,0,1.21-2.2V29.68a7.58,7.58,0,0,1,15.11-1.29,7,7,0,0,1,0,1.29V91.57a2.75,2.75,0,0,0,2.75,2.75h0a2.81,2.81,0,0,0,2.75-2.75V66.78a7.58,7.58,0,0,1,15.11,0V91.57a2.75,2.75,0,0,0,5.5,0V66.78a7.58,7.58,0,0,1,15.11,0V91.57a2.81,2.81,0,0,0,2.75,2.75,2.75,2.75,0,0,0,2.75-2.75h0V66.78a7.59,7.59,0,0,1,15.17,0Z"/><path class="cls-5" d="M107,32.43a2.75,2.75,0,0,0,2.75-2.75h0a24.08,24.08,0,0,1,48.15,0,2.75,2.75,0,1,0,5.5,0,29.69,29.69,0,0,0-59.37,0,2.8,2.8,0,0,0,2.86,2.75Z"/></g></g></svg>