<svg id="图层_1" data-name="图层 1" xmlns="http://www.w3.org/2000/svg" viewBox="0 0 1024 570"><defs><style>.cls-1{fill:#434a4f;}.cls-2,.cls-3{fill:none;stroke:#434a4f;stroke-width:0.99px;}.cls-16,.cls-19,.cls-2,.cls-28,.cls-3,.cls-30,.cls-32,.cls-33{stroke-miterlimit:10;}.cls-2{stroke-dasharray:2.98 1.99;}.cls-3{stroke-dasharray:2.98 1.99;}.cls-4{fill:#181b1e;}.cls-5{opacity:0.8;}.cls-13,.cls-6,.cls-9{font-size:10.91px;}.cls-13,.cls-16,.cls-19,.cls-28,.cls-30,.cls-32,.cls-33,.cls-37,.cls-40,.cls-6,.cls-9{fill:#fff;font-family:Wotfard-Regular, Wotfard;}.cls-25,.cls-6{letter-spacing:0em;}.cls-7{letter-spacing:0.01em;}.cls-8{letter-spacing:0em;}.cls-14,.cls-9{letter-spacing:0.01em;}.cls-10{letter-spacing:0.03em;}.cls-11{letter-spacing:0.03em;}.cls-12{letter-spacing:-0.02em;}.cls-15{opacity:0.9;}.cls-16,.cls-19,.cls-28,.cls-30,.cls-37,.cls-40{font-size:14.88px;}.cls-16,.cls-19,.cls-28,.cls-30,.cls-32,.cls-33{stroke:#fff;stroke-width:0.5px;}.cls-16,.cls-31{letter-spacing:0.01em;}.cls-17{letter-spacing:-0.01em;}.cls-18,.cls-19,.cls-40{letter-spacing:0.01em;}.cls-20{letter-spacing:-0.12em;}.cls-21{letter-spacing:-0.01em;}.cls-22{letter-spacing:0.01em;}.cls-23{letter-spacing:-0.09em;}.cls-24{letter-spacing:0.04em;}.cls-26{letter-spacing:-0.12em;}.cls-27{letter-spacing:-0.01em;}.cls-28{letter-spacing:-0.12em;}.cls-29{letter-spacing:-0.01em;}.cls-30{letter-spacing:-0.06em;}.cls-32,.cls-33{font-size:17.85px;}.cls-32{letter-spacing:0.01em;}.cls-33{letter-spacing:0.01em;}.cls-34{letter-spacing:-0.01em;}.cls-35{letter-spacing:-0.01em;}.cls-36{letter-spacing:-0.06em;}.cls-38{letter-spacing:0.03em;}.cls-39{letter-spacing:-0.02em;}.cls-41{letter-spacing:-0.02em;}.cls-42{fill:#31373d;}.cls-43{letter-spacing:-0.01em;}</style></defs><title>T</title><rect class="cls-1" x="86.27" y="148.25" width="258.07" height="166.61" rx="6.99"/><rect class="cls-1" x="747.6" y="158.28" width="172.71" height="50.58" rx="5.42"/><rect class="cls-1" x="358.22" y="331.64" width="282.38" height="114.05" rx="6.54"/><rect class="cls-1" x="86.27" y="331.64" width="258.07" height="114.05" rx="6.25"/><rect class="cls-1" x="342.31" y="164.55" width="166.61" height="134" rx="5.03" transform="translate(194.06 657.16) rotate(-90)"/><rect class="cls-1" x="490.3" y="164.55" width="166.61" height="134" rx="5.95" transform="translate(342.06 805.16) rotate(-90)"/><rect class="cls-2" x="62" y="105" width="613.41" height="360" rx="5.95"/><rect class="cls-3" x="705.91" y="105" width="256.09" height="360" rx="6.01"/><rect class="cls-4" x="207.37" y="192.95" width="113.15" height="20.83" rx="2.89"/><rect class="cls-4" x="207.37" y="231.55" width="113.15" height="20.83" rx="2.89"/><rect class="cls-4" x="106.26" y="221.14" width="74.44" height="41.65" rx="3.31"/><rect class="cls-4" x="207.37" y="270.15" width="113.15" height="20.83" rx="2.89"/><g class="cls-5"><text class="cls-6" transform="translate(217.25 207.36)">P<tspan class="cls-7" x="6.45" y="0">ositionCont</tspan><tspan class="cls-8" x="64.78" y="0">r</tspan><tspan class="cls-7" x="68.85" y="0">oller</tspan></text></g><rect class="cls-4" x="96.04" y="369.37" width="113.15" height="20.83" rx="2.89"/><g class="cls-5"><text class="cls-9" transform="translate(122.41 383.78)">TiTiFa<tspan class="cls-10" x="31.76" y="0">c</tspan><tspan x="37.5" y="0">to</tspan><tspan class="cls-11" x="48.03" y="0">r</tspan><tspan x="52.48" y="0">y</tspan></text></g><rect class="cls-4" x="218.44" y="369.37" width="113.15" height="20.83" rx="2.89"/><g class="cls-5"><text class="cls-9" transform="translate(244.9 383.78)">TiTiOracles</text></g><rect class="cls-4" x="96.04" y="403.43" width="113.15" height="20.83" rx="2.89"/><g class="cls-5"><text class="cls-9" transform="translate(110.04 417.83)">TiTi<tspan class="cls-12" x="19.83" y="0">S</tspan><tspan x="26.1" y="0">wap</tspan><tspan class="cls-12" x="47.28" y="0">L</tspan><tspan x="53.27" y="0">ibra</tspan><tspan class="cls-10" x="72.76" y="0">r</tspan><tspan x="77.21" y="0">y</tspan></text></g><rect class="cls-4" x="218.44" y="403.43" width="113.15" height="20.83" rx="2.89"/><g class="cls-5"><text class="cls-13" transform="translate(243.84 417.83)"><tspan class="cls-14">G</tspan><tspan x="8.06" y="0">ov</tspan><tspan class="cls-14" x="20.04" y="0">ernance</tspan></text></g><g class="cls-15"><text class="cls-16" transform="translate(177.2 173.22)">Cont<tspan class="cls-17" x="33.14" y="0">r</tspan><tspan class="cls-18" x="38.69" y="0">ollers</tspan></text></g><g class="cls-15"><text class="cls-19" transform="translate(191.78 356.67)">Others</text></g><rect class="cls-4" x="381.64" y="372.27" width="113.15" height="20.83" rx="2.89"/><g class="cls-5"><text class="cls-9" transform="translate(412.22 386.68)">TiTi<tspan class="cls-20" x="19.83" y="0">T</tspan><tspan class="cls-7" x="25.48" y="0">o</tspan><tspan class="cls-21" x="31.98" y="0">k</tspan><tspan x="37.63" y="0">en</tspan></text></g><rect class="cls-4" x="504.04" y="372.27" width="113.15" height="20.83" rx="2.89"/><g class="cls-5"><text class="cls-13" transform="translate(521.82 386.68)"><tspan class="cls-14">Incenti</tspan><tspan x="34.14" y="0">v</tspan><tspan class="cls-22" x="39.73" y="0">e</tspan><tspan class="cls-23" x="45.85" y="0">V</tspan><tspan class="cls-14" x="52.25" y="0">eri</tspan><tspan class="cls-24" x="65.45" y="0">f</tspan><tspan class="cls-14" x="69.66" y="0">y</tspan></text></g><rect class="cls-4" x="381.64" y="406.33" width="113.15" height="20.83" rx="2.89"/><g class="cls-5"><text class="cls-9" transform="translate(397.34 420.74)">TiTi<tspan class="cls-8" x="19.83" y="0">S</tspan><tspan class="cls-7" x="26.27" y="0">taking</tspan><tspan class="cls-25" x="57.46" y="0">P</tspan><tspan class="cls-7" x="63.9" y="0">ool</tspan></text></g><rect class="cls-4" x="504.04" y="406.33" width="113.15" height="20.83" rx="2.89"/><g class="cls-5"><text class="cls-9" transform="translate(518.03 420.74)">Ti<tspan class="cls-26" x="9.92" y="0">T</tspan><tspan x="15.57" y="0">o</tspan><tspan class="cls-27" x="22.07" y="0">k</tspan><tspan x="27.71" y="0">enR</tspan><tspan class="cls-8" x="46.92" y="0">e</tspan><tspan x="52.88" y="0">wa</tspan><tspan class="cls-8" x="67.43" y="0">r</tspan><tspan class="cls-7" x="71.5" y="0">ds</tspan></text></g><g class="cls-15"><text class="cls-28" transform="translate(460.3 359.57)">T<tspan class="cls-18" x="7.71" y="0">o</tspan><tspan class="cls-29" x="16.57" y="0">k</tspan><tspan class="cls-18" x="24.26" y="0">enomics</tspan></text></g><g class="cls-15"><text class="cls-30" transform="translate(403.58 177.29)">V<tspan class="cls-31" x="9.18" y="0">aults</tspan></text></g><g class="cls-15"><text class="cls-32" transform="translate(311.71 131.93)">On-chain</text></g><g class="cls-15"><text class="cls-33" transform="translate(795.04 141)">Off-chain</text></g><g class="cls-5"><text class="cls-9" transform="translate(213.54 246.83)">ReO<tspan class="cls-8" x="21.81" y="0">r</tspan><tspan class="cls-7" x="25.88" y="0">dersCont</tspan><tspan class="cls-34" x="72.2" y="0">r</tspan><tspan class="cls-7" x="76.26" y="0">oller</tspan></text></g><g class="cls-5"><text class="cls-13" transform="translate(214.56 285)"><tspan class="cls-14">Incenti</tspan><tspan x="34.14" y="0">v</tspan><tspan class="cls-22" x="39.73" y="0">eCont</tspan><tspan class="cls-34" x="70.16" y="0">r</tspan><tspan class="cls-14" x="74.22" y="0">oller</tspan></text></g><rect class="cls-4" x="368.9" y="192.95" width="113.15" height="20.83" rx="2.89"/><rect class="cls-4" x="368.9" y="231.55" width="113.15" height="20.83" rx="2.89"/><rect class="cls-4" x="368.9" y="270.15" width="113.15" height="20.83" rx="2.89"/><g class="cls-5"><text class="cls-13" transform="translate(385.02 207.36)"><tspan class="cls-14">Rai</tspan><tspan class="cls-35" x="15.47" y="0">n</tspan><tspan class="cls-14" x="21.57" y="0">y D</tspan><tspan x="38.69" y="0">a</tspan><tspan class="cls-14" x="44.38" y="0">y Fund</tspan></text></g><g class="cls-5"><text class="cls-9" transform="translate(392.99 246.83)">MAMM<tspan class="cls-36" x="37.32" y="0">V</tspan><tspan x="44.05" y="0">ault</tspan></text></g><g class="cls-5"><text class="cls-13" transform="translate(388.72 285)"><tspan class="cls-14">Incenti</tspan><tspan x="34.14" y="0">v</tspan><tspan class="cls-22" x="39.73" y="0">e</tspan><tspan class="cls-36" x="45.85" y="0">V</tspan><tspan class="cls-7" x="52.58" y="0">ault</tspan></text></g><g class="cls-15"><text class="cls-19" transform="translate(537.26 178.62)">Interfaces</text></g><g class="cls-15"><text class="cls-37" transform="translate(780.4 188.23)">A<tspan class="cls-38" x="10.13" y="0">c</tspan><tspan class="cls-18" x="17.97" y="0">tions</tspan><tspan class="cls-39" x="51.62" y="0">L</tspan><tspan class="cls-31" x="59.79" y="0">istener</tspan></text></g><rect class="cls-1" x="747.6" y="229.49" width="172.71" height="50.58" rx="5.42"/><g class="cls-15"><text class="cls-40" transform="translate(784.79 259.44)">P<tspan class="cls-17" x="8.94" y="0">r</tspan><tspan x="14.49" y="0">oofManager</tspan></text></g><rect class="cls-4" x="515.83" y="194.27" width="113.15" height="20.83" rx="2.89"/><rect class="cls-4" x="515.83" y="232.88" width="113.15" height="20.83" rx="2.89"/><rect class="cls-4" x="515.83" y="271.48" width="113.15" height="20.83" rx="2.89"/><g class="cls-5"><text class="cls-9" transform="translate(551.37 208.68)">Ti<tspan class="cls-26" x="9.92" y="0">T</tspan><tspan x="15.57" y="0">o</tspan><tspan class="cls-27" x="22.07" y="0">k</tspan><tspan x="27.71" y="0">en</tspan></text></g><g class="cls-5"><text class="cls-9" transform="translate(529.3 248.16)">MAMM<tspan class="cls-41" x="37.32" y="0">S</tspan><tspan x="43.59" y="0">wapPair</tspan></text></g><g class="cls-5"><text class="cls-9" transform="translate(525.03 286.33)">Mar<tspan class="cls-27" x="19.95" y="0">k</tspan><tspan x="25.59" y="0">etMa</tspan><tspan class="cls-21" x="51.46" y="0">k</tspan><tspan x="57.1" y="0">erFund</tspan></text></g><g class="cls-5"><text class="cls-9" transform="translate(118.57 235.46)">Co<tspan class="cls-34" x="14.02" y="0">r</tspan><tspan x="18.09" y="0">e </tspan><tspan x="0" y="14.88">Cont</tspan><tspan class="cls-34" x="24.31" y="14.88">r</tspan><tspan class="cls-7" x="28.37" y="14.88">oller</tspan></text></g><ellipse class="cls-42" cx="833.96" cy="430.18" rx="49.13" ry="16.36"/><rect class="cls-42" x="784.82" y="317.12" width="98.27" height="113.06"/><ellipse class="cls-1" cx="833.96" cy="317.44" rx="49.13" ry="16.36"/><g class="cls-15"><text class="cls-40" transform="translate(815.18 373.65)">P<tspan class="cls-17" x="8.94" y="0">r</tspan><tspan x="14.49" y="0">oof</tspan><tspan class="cls-43"><tspan x="-13.24" y="17.85">S</tspan><tspan class="cls-31" x="-4.54" y="17.85">napshot</tspan></tspan></text></g></svg>