<?xml version="1.0" encoding="utf-8"?>
<!-- Generator: Adobe Illustrator 24.0.1, SVG Export Plug-In . SVG Version: 6.00 Build 0)  -->
<svg version="1.1" id="图层_1" xmlns="http://www.w3.org/2000/svg" xmlns:xlink="http://www.w3.org/1999/xlink" x="0px" y="0px"
	 viewBox="0 0 178.8 60" style="enable-background:new 0 0 178.8 60;" xml:space="preserve">
<style type="text/css">
	.st0{fill:#000033;}
	.st1{fill:#0ABF53;}
	.st2{fill:#FFFFFF;}
	.st3{fill:#00112C;}
	.st4{fill:none;}
	.st5{fill:#002663;}
	.st6{fill:#339966;}
	.st7{fill:#333399;}
	.st8{fill:#333366;}
	.st9{opacity:0.2;fill:none;}
	.st10{fill:#666699;}
	.st11{opacity:0.3;}
	.st12{opacity:0.2;}
	.st13{opacity:0.6;}
	.st14{fill:none;stroke:#333366;stroke-miterlimit:10;}
	.st15{clip-path:url(#SVGID_2_);}
	.st16{opacity:0.5;fill:none;}
	.st17{opacity:0.9;}
	.st18{fill:#E7FCF8;}
	.st19{fill:#FFFAF4;}
	.st20{fill:#A8E5D5;}
	.st21{clip-path:url(#SVGID_4_);}
	.st22{opacity:0.75;clip-path:url(#SVGID_4_);}
	.st23{opacity:0.75;fill:#1C232B;}
	.st24{fill:#3FEAD5;}
	.st25{fill:#95EFDE;}
	.st26{fill:#F7C6A1;}
	.st27{opacity:0.75;}
	.st28{fill:#1C232B;}
	.st29{clip-path:url(#SVGID_8_);}
	.st30{opacity:0.75;clip-path:url(#SVGID_8_);}
	.st31{fill:#EEEEEE;}
	.st32{fill:#34E2C9;}
	.st33{fill:#27D6BD;}
	.st34{fill:#1BC1A9;}
	.st35{fill:#252828;}
	.st36{fill:#F7F7F7;}
	.st37{fill:none;stroke:#EEEEEE;stroke-miterlimit:10;}
	.st38{fill:#121414;}
	.st39{fill:#C9C9C9;}
	.st40{fill:none;stroke:#121414;stroke-miterlimit:10;}
	.st41{opacity:0.12;}
	.st42{opacity:0.75;fill:none;stroke:#121414;stroke-miterlimit:10;}
	.st43{fill:url(#SVGID_11_);}
	.st44{fill:url(#SVGID_12_);}
	.st45{fill:url(#SVGID_13_);}
	.st46{fill:url(#SVGID_14_);}
	.st47{fill:#191C1C;}
	.st48{fill:#C95CCC;}
	.st49{fill-rule:evenodd;clip-rule:evenodd;fill:#F09242;}
	.st50{fill:#F09242;}
	.st51{fill:#E8EFF9;}
	.st52{opacity:0.31;fill:none;}
	.st53{opacity:0.12;fill:none;stroke:#000000;stroke-miterlimit:10;}
	.st54{fill:url(#SVGID_19_);}
	.st55{fill:url(#SVGID_20_);}
	.st56{fill:url(#SVGID_21_);}
	.st57{fill:url(#SVGID_22_);}
	.st58{fill:#ECECEC;}
	.st59{fill:url(#SVGID_25_);}
	.st60{fill:#F5AC37;}
	.st61{fill:#8A6DF2;}
	.st62{fill:url(#SVGID_42_);}
	.st63{opacity:9.000000e-02;clip-path:url(#SVGID_46_);}
	.st64{opacity:9.000000e-02;}
	.st65{opacity:9.000000e-02;clip-path:url(#SVGID_52_);}
	.st66{opacity:9.000000e-02;clip-path:url(#SVGID_58_);}
	.st67{opacity:9.000000e-02;clip-path:url(#SVGID_64_);}
	.st68{fill:#0F1E36;}
	.st69{fill:#15352B;}
	.st70{fill:#163B38;}
	.st71{clip-path:url(#SVGID_70_);fill:url(#SVGID_71_);}
	.st72{clip-path:url(#SVGID_70_);fill:url(#SVGID_72_);}
	.st73{clip-path:url(#SVGID_74_);fill:url(#SVGID_75_);}
	.st74{clip-path:url(#SVGID_74_);fill:url(#SVGID_76_);}
	.st75{fill:url(#SVGID_77_);}
	.st76{opacity:9.000000e-02;clip-path:url(#SVGID_85_);}
	.st77{fill:url(#SVGID_90_);}
	.st78{fill:url(#SVGID_91_);}
	.st79{fill:#101C2B;}
	.st80{fill:#EC1C79;}
	.st81{fill-rule:evenodd;clip-rule:evenodd;}
	.st82{fill:#268FEF;}
	.st83{fill:#C6227C;}
	.st84{fill:#E59F39;}
</style>
<g>
	<g>
		<g>
			<path class="st2" d="M148.8,1.5c15.7,0,28.5,12.8,28.5,28.5s-12.8,28.5-28.5,28.5S120.3,45.7,120.3,30S133.1,1.5,148.8,1.5
				 M148.8,0c-16.6,0-30,13.4-30,30c0,16.6,13.4,30,30,30c16.6,0,30-13.4,30-30C178.8,13.4,165.3,0,148.8,0L148.8,0z"/>
		</g>
	</g>
	<g>
		<g>
			<path class="st2" d="M148.8,46.2c-2.2,0-3.7-1.8-3.7-4.1V23.8c0-2.3,1.5-3.8,3.7-3.8h8.3c0.9,0,1.6-0.9,1.6-1.8
				c0-1-0.7-1.9-1.6-1.9h-19.4c-0.7,0-1.2-0.6-1.2-1.2s0.6-1.2,1.2-1.2h19.4c2.2,0,4,2,4,4.3c0,2.4-1.8,4.4-4,4.4h-8.3
				c-0.9,0-1.2,0.4-1.2,1.3V42c0,0.9,0.4,1.6,1.2,1.6c0.9,0,1.2-0.8,1.2-1.7l0-14.5c0-0.7,0.6-1.2,1.2-1.2l0,0
				c0.7,0,1.2,0.6,1.2,1.2l0,14.5C152.5,44.3,151,46.2,148.8,46.2z"/>
		</g>
	</g>
</g>
<g class="st13">
	<g>
		<path class="st2" d="M75.3,34.4c0,0.5,0.4,0.9,0.9,0.9h24.3L96.8,39c-0.4,0.4-0.4,0.9,0,1.2c0.4,0.4,0.9,0.4,1.2,0l5.3-5.3
			c0,0,0.2-0.4,0.2-0.5c0-0.2,0-0.2,0-0.4c-0.2-0.4-0.5-0.5-0.9-0.5H76.2C75.7,33.5,75.3,33.9,75.3,34.4z"/>
		<path class="st2" d="M80.8,19.6l-5.3,5.3c-0.2,0.4-0.2,0.7-0.2,1.1c0.2,0.4,0.5,0.5,0.9,0.5h26.4c0.5,0,0.9-0.4,0.9-0.9
			s-0.4-0.9-0.9-0.9H78.3L82,21c0.4-0.4,0.4-0.9,0-1.2C81.6,19.4,81.1,19.4,80.8,19.6z"/>
	</g>
</g>
<g>
	<path id="Fill-14_29_" class="st49" d="M35.1,25.8c0,3.3-5.2,2.9-6.8,2.9v-5.8C29.9,22.9,35.1,22.4,35.1,25.8 M36.5,34.9
		c0,3.6-6.2,3.2-8.2,3.2v-6.4C30.3,31.7,36.5,31.1,36.5,34.9 M40.5,24.6c-0.3-3.5-3.3-4.6-7.1-5v-4.8h-2.9v4.7c-0.8,0-1.6,0-2.3,0
		v-4.7h-2.9v4.8h-5.9v3.1c0,0,2.2,0,2.1,0c0.8-0.1,1.5,0.5,1.7,1.3v13.1c0,0.6-0.5,1-1.1,1c0,0,0,0,0,0l0,0c0,0-2.1,0-2.1,0
		l-0.6,3.5h5.9v4.9h2.9v-4.8h2.3v4.8h2.9v-4.8c4.9-0.3,8.3-1.5,8.8-6.1c0.3-3.7-1.4-5.4-4.2-6C39.7,28.6,40.8,27.1,40.5,24.6"/>
	<g>
		<g>
			<path class="st50" d="M45.9,47.4c-0.8,0.6-1.7,1.2-2.5,1.7c-3,2.1-6.5,3.5-10.2,4.1c-1.9,0.3-3.8,0.3-5.7,0.1
				c-4.7-0.5-9.2-2.4-12.9-5.4c-0.2-0.1-0.4-0.3-0.6-0.4l-1.3,1.2c4.6,4.6,11,6.8,17.3,6.8c0.1,0,0.3,0,0.4,0h0.1
				c5.8-0.2,11.4-2.3,15.8-6.1c0.2-0.2,0.4-0.4,0.6-0.6L45.9,47.4z"/>
			<path class="st50" d="M14.2,12.5c6-5.4,14.4-7.4,22.2-5.2l0.3,0.1c0.2,0,0.3,0.1,0.5,0.2c0.2,0.1,0.5,0.2,0.7,0.2l0.2,0.1
				c0.3,0.1,0.6,0.2,0.9,0.4l0,0c2.5,1.1,4.7,2.5,6.8,4.2l1.3-1.4c-0.2-0.2-0.4-0.3-0.5-0.5c-4.4-3.8-10.1-6-16-6.2
				c-0.3,0-0.6,0-0.9,0h-0.1c-1.9,0-3.8,0.3-5.7,0.7l-0.4,0.1l-0.3,0.1c-1.8,0.5-3.6,1.2-5.3,2.1c-1.9,1-3.5,2.3-5,3.8L14.2,12.5z"
				/>
			<path class="st50" d="M12.6,14.1l-1.4-1.2c-9.6,10-8.2,26.3,0,34.1l1.4-1.1C4.3,36.8,4.3,23.1,12.6,14.1L12.6,14.1z"/>
			<path class="st50" d="M49.4,13.5c-0.2-0.2-0.4-0.5-0.7-0.7l-1.2,1.4c7.2,8.2,8.8,21.3,0.2,31.4L49,47
				C57.5,37.5,57.7,23.2,49.4,13.5L49.4,13.5z"/>
		</g>
	</g>
	<path class="st50" d="M30,2c15.5,0,28,12.5,28,28S45.5,58,30,58S2,45.5,2,30c0,0,0,0,0,0C2,14.5,14.5,2,30,2 M30,0
		C13.4,0,0,13.4,0,30s13.4,30,30,30c16.6,0,30-13.4,30-30C60,13.4,46.6,0,30,0L30,0z"/>
</g>
</svg>
