<?xml version="1.0" encoding="utf-8"?>
<!-- Generator: Adobe Illustrator 24.0.1, SVG Export Plug-In . SVG Version: 6.00 Build 0)  -->
<svg version="1.1" id="图层_1" xmlns="http://www.w3.org/2000/svg" xmlns:xlink="http://www.w3.org/1999/xlink" x="0px" y="0px"
	 viewBox="0 0 178.8 60" style="enable-background:new 0 0 178.8 60;" xml:space="preserve">
<style type="text/css">
	.st0{fill:#000033;}
	.st1{fill:#0ABF53;}
	.st2{fill:#FFFFFF;}
	.st3{fill:#00112C;}
	.st4{fill:none;}
	.st5{fill:#002663;}
	.st6{fill:#339966;}
	.st7{fill:#333399;}
	.st8{fill:#333366;}
	.st9{opacity:0.2;fill:none;}
	.st10{fill:#666699;}
	.st11{opacity:0.3;}
	.st12{opacity:0.2;}
	.st13{opacity:0.6;}
	.st14{fill:none;stroke:#333366;stroke-miterlimit:10;}
	.st15{clip-path:url(#SVGID_2_);}
	.st16{opacity:0.5;fill:none;}
	.st17{opacity:0.9;}
	.st18{fill:#E7FCF8;}
	.st19{fill:#FFFAF4;}
	.st20{fill:#A8E5D5;}
	.st21{clip-path:url(#SVGID_4_);}
	.st22{opacity:0.75;clip-path:url(#SVGID_4_);}
	.st23{opacity:0.75;fill:#1C232B;}
	.st24{fill:#3FEAD5;}
	.st25{fill:#95EFDE;}
	.st26{fill:#F7C6A1;}
	.st27{opacity:0.75;}
	.st28{fill:#1C232B;}
	.st29{clip-path:url(#SVGID_8_);}
	.st30{opacity:0.75;clip-path:url(#SVGID_8_);}
	.st31{fill:#EEEEEE;}
	.st32{fill:#34E2C9;}
	.st33{fill:#27D6BD;}
	.st34{fill:#1BC1A9;}
	.st35{fill:#252828;}
	.st36{fill:#F7F7F7;}
	.st37{fill:none;stroke:#EEEEEE;stroke-miterlimit:10;}
	.st38{fill:#121414;}
	.st39{fill:#C9C9C9;}
	.st40{fill:none;stroke:#121414;stroke-miterlimit:10;}
	.st41{opacity:0.12;}
	.st42{opacity:0.75;fill:none;stroke:#121414;stroke-miterlimit:10;}
	.st43{fill:url(#SVGID_11_);}
	.st44{fill:url(#SVGID_12_);}
	.st45{fill:url(#SVGID_13_);}
	.st46{fill:url(#SVGID_14_);}
	.st47{fill:#191C1C;}
	.st48{fill:#C95CCC;}
	.st49{fill-rule:evenodd;clip-rule:evenodd;fill:#F09242;}
	.st50{fill:#F09242;}
	.st51{fill:#E8EFF9;}
	.st52{opacity:0.31;fill:none;}
	.st53{opacity:0.12;fill:none;stroke:#000000;stroke-miterlimit:10;}
	.st54{fill:url(#SVGID_19_);}
	.st55{fill:url(#SVGID_20_);}
	.st56{fill:url(#SVGID_21_);}
	.st57{fill:url(#SVGID_22_);}
	.st58{fill:#ECECEC;}
	.st59{fill:url(#SVGID_25_);}
	.st60{fill:#F5AC37;}
	.st61{fill:#8A6DF2;}
	.st62{fill:url(#SVGID_42_);}
	.st63{opacity:9.000000e-02;clip-path:url(#SVGID_46_);}
	.st64{opacity:9.000000e-02;}
	.st65{opacity:9.000000e-02;clip-path:url(#SVGID_52_);}
	.st66{opacity:9.000000e-02;clip-path:url(#SVGID_58_);}
	.st67{opacity:9.000000e-02;clip-path:url(#SVGID_64_);}
	.st68{fill:#0F1E36;}
	.st69{fill:#15352B;}
	.st70{fill:#163B38;}
	.st71{clip-path:url(#SVGID_70_);fill:url(#SVGID_71_);}
	.st72{clip-path:url(#SVGID_70_);fill:url(#SVGID_72_);}
	.st73{clip-path:url(#SVGID_74_);fill:url(#SVGID_75_);}
	.st74{clip-path:url(#SVGID_74_);fill:url(#SVGID_76_);}
	.st75{fill:url(#SVGID_77_);}
	.st76{opacity:9.000000e-02;clip-path:url(#SVGID_85_);}
	.st77{fill:url(#SVGID_90_);}
	.st78{fill:url(#SVGID_91_);}
	.st79{fill:#101C2B;}
	.st80{fill:#EC1C79;}
	.st81{fill-rule:evenodd;clip-rule:evenodd;}
	.st82{fill:#268FEF;}
	.st83{fill:#C6227C;}
	.st84{fill:#E59F39;}
</style>
<g>
	<g>
		<g>
			<path class="st2" d="M148.8,1.5c15.7,0,28.5,12.8,28.5,28.5s-12.8,28.5-28.5,28.5S120.3,45.7,120.3,30S133.1,1.5,148.8,1.5
				 M148.8,0c-16.6,0-30,13.4-30,30c0,16.6,13.4,30,30,30c16.6,0,30-13.4,30-30C178.8,13.4,165.3,0,148.8,0L148.8,0z"/>
		</g>
	</g>
	<g>
		<g>
			<path class="st2" d="M148.8,46.2c-2.2,0-3.7-1.8-3.7-4.1V23.8c0-2.3,1.5-3.8,3.7-3.8h8.3c0.9,0,1.6-0.9,1.6-1.8
				c0-1-0.7-1.9-1.6-1.9h-19.4c-0.7,0-1.2-0.6-1.2-1.2s0.6-1.2,1.2-1.2h19.4c2.2,0,4,2,4,4.3c0,2.4-1.8,4.4-4,4.4h-8.3
				c-0.9,0-1.2,0.4-1.2,1.3V42c0,0.9,0.4,1.6,1.2,1.6c0.9,0,1.2-0.8,1.2-1.7l0-14.5c0-0.7,0.6-1.2,1.2-1.2l0,0
				c0.7,0,1.2,0.6,1.2,1.2l0,14.5C152.5,44.3,151,46.2,148.8,46.2z"/>
		</g>
	</g>
</g>
<g class="st13">
	<g>
		<path class="st2" d="M75.3,34.4c0,0.5,0.4,0.9,0.9,0.9h24.3L96.8,39c-0.4,0.4-0.4,0.9,0,1.2c0.4,0.4,0.9,0.4,1.2,0l5.3-5.3
			c0,0,0.2-0.4,0.2-0.5c0-0.2,0-0.2,0-0.4c-0.2-0.4-0.5-0.5-0.9-0.5H76.2C75.7,33.5,75.3,33.9,75.3,34.4z"/>
		<path class="st2" d="M80.8,19.6l-5.3,5.3c-0.2,0.4-0.2,0.7-0.2,1.1c0.2,0.4,0.5,0.5,0.9,0.5h26.4c0.5,0,0.9-0.4,0.9-0.9
			s-0.4-0.9-0.9-0.9H78.3L82,21c0.4-0.4,0.4-0.9,0-1.2C81.6,19.4,81.1,19.4,80.8,19.6z"/>
	</g>
</g>
<g id="weth_8_">
	<g>
		<path id="Oval_26_" d="M16.4,60c15.4,0,15.4-0.2,18-1c3.4-1-9.6-10-18-10S1.3,51.4,1.3,54.5C1.3,57.5,8,60,16.4,60z"/>
		<path id="Oval_25_" d="M51.4,13l0.7,0.8l-0.6,0.8C31.4,41.8,19.8,54.1,14.9,52.4c-3-1-6-4-9-8.4c-1.1-1.5-2-3.2-2.9-4.8
			c-0.6-1.1-1.1-2.1-1.4-2.6c-0.3-0.7-0.5-1.1-0.6-1.7c0,0,0,0,0-0.1c0-0.2-0.1-0.3-0.1-0.5c-0.6-2.3-0.9-4.6-0.9-7
			C0,12.3,12.3,0,27.4,0c4.7,0,9.3,1.2,13.3,3.5l0.1,0.1C44.1,5.8,47.6,9,51.4,13z M39.4,5.6c-3.7-2-7.8-3.1-12.1-3.1
			C13.6,2.5,2.5,13.6,2.5,27.4c0,2.2,0.3,4.3,0.8,6.4c0.1,0.2,0.1,0.3,0.1,0.6c0,0,0,0,0,0.1c0.1,0.4,0.1,0.6,0.4,1.1
			C4.1,36.1,4.6,37,5.2,38C6,39.6,7,41.1,8,42.6c2.7,4,5.4,6.7,7.7,7.4c3.1,1,14.7-11.3,33.1-36.1C45.5,10.5,42.4,7.7,39.4,5.6z"/>
		<path id="Path_17_" class="st80" d="M39.4,5.6c-3.7-2-7.8-3.1-12.1-3.1C13.6,2.5,2.5,13.6,2.5,27.4c0,2.2,0.3,4.3,0.8,6.4
			c0.1,0.2,0.1,0.3,0.1,0.6c0,0,0,0,0,0.1c0.1,0.4,0.1,0.6,0.4,1.1C4.1,36.1,4.6,37,5.2,38C6,39.6,7,41.1,8,42.6
			c2.7,4,5.4,6.7,7.7,7.4c3.1,1,14.7-11.3,33.1-36.1C45.5,10.5,42.4,7.7,39.4,5.6z"/>
		<path id="Oval_24_" d="M32.4,59.7C17.3,59.7,5,47.5,5,32.4S17.3,5,32.4,5s27.4,12.3,27.4,27.4S47.5,59.7,32.4,59.7z M32.4,57.2
			c13.7,0,24.9-11.1,24.9-24.9S46.1,7.5,32.4,7.5S7.5,18.7,7.5,32.4S18.7,57.2,32.4,57.2z"/>
		<path id="Path_16_" class="st2" d="M32.4,57.2c13.7,0,24.9-11.1,24.9-24.9S46.1,7.5,32.4,7.5S7.5,18.7,7.5,32.4
			S18.7,57.2,32.4,57.2z"/>
		<path id="WETH_8_" class="st81" d="M13.8,37.5l-3.3-9.9h2.9l1.7,5.7l1.9-5.7h2.3l1.9,5.7l1.7-5.7h2.8l-3.3,9.9h-2.4l-2-5.7l-2,5.7
			H13.8z M26.9,37.4v-9.8h7.9v2.3h-5.2v1.5h4.7v2.2h-4.7v1.6h5.3v2.3H26.9z M38.6,37.4V30h-3v-2.4h8.6V30h-3v7.5H38.6z M45.5,37.4
			v-9.8h2.7v3.7h3.5v-3.7h2.7v9.8h-2.7v-3.7h-3.5v3.7H45.5z"/>
		<path id="Line_17_" d="M1.6,24.6c-0.7-0.3-1-1.2-0.6-1.9s1.2-1,1.9-0.6l4,2c0.7,0.3,1,1.2,0.6,1.9s-1.2,1-1.9,0.6L1.6,24.6z"/>
		<path id="Line_16_" d="M1.2,31.3c-0.7-0.3-1-1.2-0.7-1.9s1.2-1,1.9-0.7l4,1.9c0.7,0.3,1,1.2,0.7,1.9c-0.3,0.7-1.2,1-1.9,0.7
			L1.2,31.3z"/>
	</g>
</g>
</svg>
