<svg id="图层_1" data-name="图层 1" xmlns="http://www.w3.org/2000/svg" viewBox="0 0 62.43 62.69"><defs><style>.cls-1{fill:#ec1c79;}.cls-2{fill:#fff;}.cls-3{fill-rule:evenodd;}</style></defs><title>weth</title><g id="weth"><path id="Oval" d="M17.15,62.69c16.09,0,16.09-.24,18.82-1,3.56-1.06-10.06-10.49-18.82-10.49S1.31,53.73,1.31,56.92,8.41,62.69,17.15,62.69Z"/><path id="Oval-2" data-name="Oval" d="M53.68,13.62l.74.8-.64.87c-21,28.37-33.07,41.21-38.2,39.49C12.46,53.73,9.33,50.57,6.19,46c-1.1-1.61-2.13-3.31-3.07-5C2.49,39.87,2,38.85,1.69,38.27a7,7,0,0,1-.62-1.79v-.07C1,36.16,1,36.08,1,35.94A28.61,28.61,0,0,1,42.53,3.62l.11.07A70.17,70.17,0,0,1,53.68,13.62ZM41.19,5.88A26,26,0,0,0,2.62,28.59a26.16,26.16,0,0,0,.87,6.68c.06.21.08.33.14.64V36a4.25,4.25,0,0,0,.42,1.16c.25.53.75,1.5,1.35,2.58.9,1.62,1.9,3.25,2.95,4.79,2.83,4.14,5.64,7,8.06,7.78C19.65,53.38,31.8,40.51,51,14.61A66.31,66.31,0,0,0,41.19,5.88Z"/><path id="Path" class="cls-1" d="M41.19,5.88A26,26,0,0,0,2.62,28.59a26.16,26.16,0,0,0,.87,6.68c.06.21.08.33.14.64V36a4.25,4.25,0,0,0,.42,1.16c.25.53.75,1.5,1.35,2.58.9,1.62,1.9,3.25,2.95,4.79,2.83,4.14,5.64,7,8.06,7.78C19.65,53.38,31.8,40.51,51,14.61A66.31,66.31,0,0,0,41.19,5.88Z"/><path id="Oval-3" data-name="Oval" d="M33.84,62.43A28.59,28.59,0,1,1,62.43,33.84,28.59,28.59,0,0,1,33.84,62.43Zm0-2.63a26,26,0,1,0-26-26A26,26,0,0,0,33.84,59.8Z"/><path id="Path-2" data-name="Path" class="cls-2" d="M33.84,59.8a26,26,0,1,0-26-26A26,26,0,0,0,33.84,59.8Z"/><path id="WETH-2" data-name="WETH" class="cls-3" d="M14.41,39.16,11,28.8h3l1.79,5.95,2-6h2.45l2,6L24,28.8h3L23.5,39.16H21L19,33.24l-2.06,5.92Zm13.66-.08V28.8h8.27v2.42H30.89v1.56h4.94V35H30.89v1.63h5.52v2.42Zm12.31,0V31.3H37.3V28.8h9v2.5H43.23v7.78Zm7.18,0V28.8h2.85v3.85h3.66V28.8h2.85V39.08H54.07V35.17H50.41v3.91Z"/><path id="Line" d="M1.7,25.71A1.47,1.47,0,0,1,3,23.08l4.19,2.1A1.47,1.47,0,0,1,5.9,27.81Z"/><path id="Line-2" data-name="Line" d="M1.22,32.67A1.47,1.47,0,0,1,2.45,30l4.2,1.94A1.47,1.47,0,1,1,5.42,34.6Z"/></g></svg>