<svg xmlns="http://www.w3.org/2000/svg" viewBox="0 0 276.72 120"><defs><style>.cls-1{fill:#00112c;}</style></defs><title>资源 9</title><g id="图层_2" data-name="图层 2"><g id="图层_1-2" data-name="图层 1"><path class="cls-1" d="M160.08,36.33H142.8a1.81,1.81,0,0,1-1.8-1.8V30.3a1.81,1.81,0,0,1,1.8-1.8h46.62a1.81,1.81,0,0,1,1.8,1.8v4.23a1.81,1.81,0,0,1-1.8,1.8H172.14a1.81,1.81,0,0,0-1.8,1.8V89.7a1.81,1.81,0,0,1-1.8,1.8h-4.86a1.81,1.81,0,0,1-1.8-1.8V38.13A1.81,1.81,0,0,0,160.08,36.33Z"/><rect class="cls-1" x="197.61" y="48.3" width="8.1" height="43.2" rx="1.8"/><path class="cls-1" d="M231.09,36.33H213.81a1.81,1.81,0,0,1-1.8-1.8V30.3a1.81,1.81,0,0,1,1.8-1.8h46.62a1.8,1.8,0,0,1,1.8,1.8v4.23a1.8,1.8,0,0,1-1.8,1.8H243.15a1.81,1.81,0,0,0-1.8,1.8V89.7a1.8,1.8,0,0,1-1.8,1.8h-4.86a1.81,1.81,0,0,1-1.8-1.8V38.13A1.81,1.81,0,0,0,231.09,36.33Z"/><rect class="cls-1" x="268.62" y="48.3" width="8.1" height="43.2" rx="1.8"/><rect class="cls-1" x="197.61" y="28.55" width="8.1" height="7.87" rx="0.6"/><rect class="cls-1" x="268.62" y="28.55" width="8.1" height="7.87" rx="0.6"/><path class="cls-1" d="M60,3.6A56.4,56.4,0,1,1,3.6,60,56.46,56.46,0,0,1,60,3.6M60,0a60,60,0,1,0,60,60A60,60,0,0,0,60,0Z"/><path class="cls-1" d="M60,92.31c-4.43,0-7.38-3.69-7.38-8.22V47.65c0-4.54,2.91-7.53,7.34-7.53H76.54c1.72,0,3.15-1.81,3.15-3.61,0-2-1.4-3.85-3.11-3.85H37.85a2.49,2.49,0,0,1,0-5H76.58c4.43,0,8,4,8,8.58,0,4.78-3.65,8.82-8.08,8.82H60c-1.72,0-2.42.76-2.42,2.56V84.09c0,1.79.74,3.25,2.46,3.25s2.46-1.55,2.46-3.35V55a2.48,2.48,0,0,1,2.46-2.49h0A2.48,2.48,0,0,1,67.38,55V84C67.38,88.53,64.43,92.31,60,92.31Z"/></g></g></svg>