<svg id="图层_1" data-name="图层 1" xmlns="http://www.w3.org/2000/svg" viewBox="0 0 1024 570"><defs><style>.cls-1,.cls-19{fill:#3fe5d0;}.cls-2{fill:#091e1a;}.cls-3{opacity:0.9;}.cls-19,.cls-4{font-size:15px;}.cls-4,.cls-8{fill:#fff;}.cls-4{stroke:#fff;stroke-miterlimit:10;stroke-width:0.25px;}.cls-19,.cls-4,.cls-8{font-family:Wotfard-Regular, Wotfard;}.cls-5{letter-spacing:-0.02em;}.cls-6{letter-spacing:0.02em;}.cls-7{opacity:0.7;}.cls-8{font-size:12px;}.cls-9{letter-spacing:-0.02em;}.cls-10{letter-spacing:0em;}.cls-11{letter-spacing:-0.02em;}.cls-12{letter-spacing:-0.01em;}.cls-13{letter-spacing:0.02em;}.cls-14{letter-spacing:-0.01em;}.cls-15{letter-spacing:-0.13em;}.cls-16{letter-spacing:-0.03em;}.cls-17{letter-spacing:0.01em;}.cls-18{letter-spacing:-0.01em;}.cls-20{letter-spacing:-0.02em;}.cls-21{letter-spacing:-0.03em;}.cls-22{letter-spacing:-0.04em;}.cls-23{letter-spacing:-0.04em;}</style></defs><title>T</title><rect class="cls-1" x="144.95" y="330.42" width="1" height="29"/><circle class="cls-1" cx="145.45" cy="320.92" r="10.5"/><rect class="cls-1" x="328.21" y="296.42" width="1" height="63"/><circle class="cls-1" cx="328.71" cy="286.92" r="10.5"/><rect class="cls-1" x="511.48" y="257.42" width="1" height="102"/><circle class="cls-1" cx="511.98" cy="247.92" r="10.5"/><rect class="cls-1" x="694.74" y="220.42" width="1" height="139"/><circle class="cls-1" cx="695.24" cy="210.92" r="10.5"/><rect class="cls-1" x="878" y="172.42" width="1" height="187"/><circle class="cls-1" cx="878.5" cy="162.92" r="10.5"/><rect class="cls-2" x="-6.17" y="353.42" width="1036.34" height="9" rx="3"/><g class="cls-3"><text class="cls-4" transform="translate(82.35 297.42)">P<tspan class="cls-5" x="8.86" y="0">r</tspan><tspan x="14.31" y="0">odu</tspan><tspan class="cls-6" x="40.51" y="0">c</tspan><tspan x="48.27" y="0">t p</tspan><tspan class="cls-5" x="67" y="0">r</tspan><tspan x="72.45" y="0">ototype</tspan></text></g><g class="cls-7"><text class="cls-8" transform="translate(83.73 405.72)">Bac<tspan class="cls-9" x="19.37" y="0">k</tspan><tspan class="cls-10" x="25.45" y="0">g</tspan><tspan class="cls-11" x="32.38" y="0">r</tspan><tspan x="36.73" y="0">ound Resea</tspan><tspan class="cls-12" x="100.27" y="0">r</tspan><tspan x="104.63" y="0">ch, </tspan><tspan x="0" y="14.4">mechanism design, the </tspan><tspan x="0" y="28.8">p</tspan><tspan class="cls-12" x="7.16" y="28.8">r</tspan><tspan x="11.52" y="28.8">otocol dedu</tspan><tspan class="cls-13" x="77.11" y="28.8">c</tspan><tspan x="83.31" y="28.8">tion and </tspan><tspan x="0" y="43.2">simu</tspan><tspan class="cls-14" x="25.55" y="43.2">l</tspan><tspan x="28.43" y="43.2">ations</tspan></text></g><g class="cls-7"><text class="cls-8" transform="translate(271.25 405.72)"><tspan class="cls-15">T</tspan><tspan x="6.1" y="0">estnet </tspan><tspan class="cls-16" x="43.64" y="0">L</tspan><tspan x="50.11" y="0">aunch, fu</tspan><tspan class="cls-17" x="100.63" y="0">r</tspan><tspan class="cls-10" x="105.35" y="0">ther </tspan><tspan x="0" y="14.4">imp</tspan><tspan class="cls-12" x="20.52" y="14.4">r</tspan><tspan class="cls-18" x="24.88" y="14.4">ov</tspan><tspan x="37.81" y="14.4">e the P</tspan><tspan class="cls-12" x="76.28" y="14.4">r</tspan><tspan x="80.64" y="14.4">otocol</tspan></text></g><g class="cls-7"><text class="cls-8" transform="translate(458.77 405.72)">Mainnet <tspan class="cls-16" x="48.04" y="0">L</tspan><tspan x="54.5" y="0">aunch with </tspan><tspan x="0" y="14.4">USDC as first </tspan><tspan class="cls-12" x="75.69" y="14.4">r</tspan><tspan x="80.05" y="14.4">ese</tspan><tspan class="cls-13" x="98.7" y="14.4">r</tspan><tspan class="cls-14" x="103.47" y="14.4">v</tspan><tspan x="109.5" y="14.4">e </tspan><tspan x="0" y="28.8">asset</tspan></text></g><g class="cls-7"><text class="cls-8" transform="translate(643.29 405.72)">Int<tspan class="cls-12" x="14.36" y="0">r</tspan><tspan x="18.72" y="0">oduce multi-asset </tspan><tspan class="cls-12" x="0" y="14.4">r</tspan><tspan x="4.36" y="14.4">ese</tspan><tspan class="cls-13" x="23" y="14.4">r</tspan><tspan class="cls-14" x="27.78" y="14.4">v</tspan><tspan x="33.8" y="14.4">e, including ETH, </tspan><tspan class="cls-16"><tspan x="0" y="28.8">D</tspan><tspan class="cls-10" x="8.2" y="28.8">AI etc.</tspan></tspan></text></g><g class="cls-7"><text class="cls-8" transform="translate(826.81 405.72)">Inc<tspan class="cls-12" x="16.02" y="0">r</tspan><tspan x="20.38" y="0">easing the demand </tspan><tspan class="cls-14" x="0" y="14.4">f</tspan><tspan x="4.03" y="14.4">or TiUSD </tspan><tspan class="cls-9" x="57.19" y="14.4">b</tspan><tspan x="64.12" y="14.4">y </tspan><tspan class="cls-12" x="74.04" y="14.4">e</tspan><tspan x="80.47" y="14.4">xpanding </tspan><tspan x="0" y="28.8">application scenarios </tspan><tspan x="0" y="43.2">such as lending etc.</tspan></text></g><text class="cls-19" transform="translate(113.69 385.5)"><tspan class="cls-20">2</tspan><tspan class="cls-21" x="8.76" y="0">0</tspan><tspan class="cls-20" x="18.42" y="0">2</tspan><tspan x="27.18" y="0">0 Q4</tspan></text><text class="cls-19" transform="translate(298.43 385.5)"><tspan class="cls-20">2</tspan><tspan class="cls-21" x="8.76" y="0">0</tspan><tspan class="cls-20" x="18.42" y="0">2</tspan><tspan x="27.18" y="0">1 Q3</tspan></text><text class="cls-19" transform="translate(481.21 385.5)"><tspan class="cls-20">2</tspan><tspan class="cls-21" x="8.76" y="0">0</tspan><tspan x="18.42" y="0">22 Q1</tspan></text><text class="cls-19" transform="translate(662.82 385.5)"><tspan class="cls-20">2</tspan><tspan class="cls-21" x="8.76" y="0">0</tspan><tspan x="18.42" y="0">22 Q3</tspan></text><text class="cls-19" transform="translate(845.45 385.5)"><tspan class="cls-20">2</tspan><tspan class="cls-21" x="8.76" y="0">0</tspan><tspan x="18.42" y="0">22 Q4</tspan></text><g class="cls-3"><text class="cls-4" transform="translate(252.79 245.39)">Community Expansion<tspan x="49.24" y="18">10000+</tspan></text></g><g class="cls-3"><text class="cls-4" transform="translate(448.38 207.34)">TiUSD Mar<tspan class="cls-20" x="74.58" y="0">k</tspan><tspan x="82.18" y="0">et Cap</tspan><tspan x="63.59" y="9" xml:space="preserve">  </tspan><tspan x="15.37" y="18">$5</tspan><tspan class="cls-22" x="33.45" y="18">0</tspan><tspan x="42.96" y="18">,00</tspan><tspan class="cls-22" x="67.57" y="18">0</tspan><tspan x="77.08" y="18">,000</tspan></text></g><g class="cls-3"><text class="cls-4" transform="translate(631.15 170.34)">TiUSD Mar<tspan class="cls-20" x="74.58" y="0">k</tspan><tspan x="82.18" y="0">et Cap</tspan><tspan x="63.59" y="9" xml:space="preserve">  </tspan><tspan x="10.51" y="18">$</tspan><tspan class="cls-20" x="19.44" y="18">2</tspan><tspan x="28.2" y="18">0</tspan><tspan class="cls-22" x="38.31" y="18">0</tspan><tspan x="47.82" y="18">,00</tspan><tspan class="cls-23" x="72.43" y="18">0</tspan><tspan x="81.94" y="18">,000</tspan></text></g><g class="cls-3"><text class="cls-4" transform="translate(814.41 122.34)">TiUSD Mar<tspan class="cls-20" x="74.58" y="0">k</tspan><tspan x="82.18" y="0">et Cap</tspan><tspan x="63.59" y="9" xml:space="preserve">  </tspan><tspan x="4.5" y="18">$</tspan><tspan class="cls-21" x="13.42" y="18">1</tspan><tspan x="19.71" y="18">,00</tspan><tspan class="cls-22" x="44.32" y="18">0</tspan><tspan x="53.83" y="18">,00</tspan><tspan class="cls-22" x="78.45" y="18">0</tspan><tspan x="87.96" y="18">,000</tspan></text></g></svg>