<?xml version="1.0" standalone="no"?><!DOCTYPE svg PUBLIC "-//W3C//DTD SVG 1.1//EN" "http://www.w3.org/Graphics/SVG/1.1/DTD/svg11.dtd"><svg t="1623837238070" class="icon" viewBox="0 0 1024 1024" version="1.1" xmlns="http://www.w3.org/2000/svg" p-id="2578" xmlns:xlink="http://www.w3.org/1999/xlink" width="200" height="200"><defs><style type="text/css"></style></defs><path d="M352 0C332.8 0 320 12.8 320 32l0 883.2-134.4-134.4c-12.8-12.8-32-12.8-44.8 0s-12.8 32 0 44.8l192 192C332.8 1017.6 345.6 1024 352 1024c6.4 0 6.4 0 12.8 0C377.6 1017.6 384 1004.8 384 992l0-960C384 12.8 371.2 0 352 0z" p-id="2579" fill="#EBAF50"></path><path d="M889.6 198.4l-192-192C684.8 0 672 0 659.2 0 646.4 6.4 640 19.2 640 32l0 960c0 19.2 12.8 32 32 32s32-12.8 32-32L704 108.8l134.4 134.4c12.8 12.8 32 12.8 44.8 0S896 211.2 889.6 198.4z" p-id="2580" fill="#EBAF50"></path></svg>