<?xml version="1.0" encoding="utf-8"?>
<!-- Generator: Adobe Illustrator 24.0.1, SVG Export Plug-In . SVG Version: 6.00 Build 0)  -->
<svg version="1.1" id="图层_1" xmlns="http://www.w3.org/2000/svg" xmlns:xlink="http://www.w3.org/1999/xlink" x="0px" y="0px"
	 viewBox="0 0 16.3 16" style="enable-background:new 0 0 16.3 16;" xml:space="preserve">
<style type="text/css">
	.st0{fill:none;stroke:#3FEAD5;stroke-width:3;stroke-miterlimit:10;}
	.st1{fill:#3FEAD5;}
	.st2{fill:#FFFFFF;}
	.st3{opacity:0.6;fill:#00181E;stroke:#0B323D;stroke-width:12;stroke-miterlimit:10;}
	.st4{fill:url(#SVGID_3_);}
	.st5{opacity:0.9;}
	.st6{fill:none;stroke:#FFFFFF;stroke-width:1.2;stroke-miterlimit:10;}
	.st7{clip-path:url(#SVGID_5_);}
	.st8{fill:#22996E;}
	.st9{fill:#CC0033;}
	.st10{fill:#38E0C7;}
	.st11{fill:none;stroke:#000000;stroke-miterlimit:10;}
	.st12{stroke:#000000;stroke-width:0.75;stroke-miterlimit:10;}
	.st13{stroke:#000000;stroke-miterlimit:10;}
</style>
<g class="st5">
	<g>
		<path class="st2" d="M8.2,16c-4.4,0-8-3.6-8-8s3.6-8,8-8s8,3.6,8,8S12.6,16,8.2,16z M8.2,0.4C4,0.4,0.5,3.8,0.5,8s3.4,7.6,7.6,7.6
			s7.6-3.4,7.6-7.6S12.4,0.4,8.2,0.4z"/>
	</g>
	<g>
		<path class="st2" d="M8.5,13.8c-1.2,0-4.4-1-4.4-5.4c0-0.1-0.2-2.6,1.3-4.2c0.7-0.8,1.8-1.2,3-1.2c0,0,0,0,0,0
			c2.2,0,3.1,1.2,3.2,1.2c0.1,0.2,0.1,0.4-0.1,0.5c-0.2,0.1-0.4,0.1-0.5-0.1c0,0-0.8-0.9-2.6-0.9c0,0,0,0,0,0C7.4,3.6,6.6,4,6,4.6
			C4.7,6,4.9,8.3,4.9,8.3c0,3.9,2.7,4.7,3.6,4.7c1.9-0.1,2.2-1.1,2.2-2.2c0-0.5,0-0.8,0-1.1c0-0.3,0.1-0.5,0.3-0.7
			c0.2-0.2,0.4-0.3,0.7-0.3h0.1c0.2,0,0.3-0.1,0.3-0.3V8.3C12.1,8.1,12,8,11.8,8H9.6C9.4,8,9.2,7.8,9.2,7.6c0-0.2,0.2-0.4,0.4-0.4
			h2.2c0.6,0,1,0.5,1,1v0.1c0,0.6-0.5,1-1,1h-0.1c-0.1,0-0.2,0-0.2,0.1c-0.1,0.1-0.1,0.1-0.1,0.2c0,0.3,0,0.7,0,1.2
			C11.3,12.7,10.4,13.6,8.5,13.8C8.5,13.8,8.5,13.8,8.5,13.8z"/>
	</g>
</g>
</svg>
