<?xml version="1.0" standalone="no"?><!DOCTYPE svg PUBLIC "-//W3C//DTD SVG 1.1//EN" "http://www.w3.org/Graphics/SVG/1.1/DTD/svg11.dtd"><svg t="1622192507203" class="icon" viewBox="0 0 1024 1024" version="1.1" xmlns="http://www.w3.org/2000/svg" p-id="3850" xmlns:xlink="http://www.w3.org/1999/xlink" width="200" height="200"><defs><style type="text/css"></style></defs><path d="M509.866667 32C245.333333 32 32 247.466667 32 512s213.333333 480 477.866667 480c264.533333 0 477.866667-215.466667 477.866666-480S774.4 32 509.866667 32z m0 896C281.6 928 96 742.4 96 512S281.6 96 509.866667 96 923.733333 281.6 923.733333 512s-185.6 416-413.866666 416z" fill="#ffffff" p-id="3851"></path><path d="M433.066667 354.133333c-6.4-4.266667-17.066667 0-17.066667 10.666667V661.333333c0 8.533333 8.533333 14.933333 17.066667 10.666667l234.666666-149.333333c6.4-4.266667 6.4-14.933333 0-19.2l-234.666666-149.333334z" fill="#ffffff" p-id="3852"></path></svg>