<?xml version="1.0" encoding="utf-8"?>
<!-- Generator: Adobe Illustrator 24.0.1, SVG Export Plug-In . SVG Version: 6.00 Build 0)  -->
<svg version="1.1" id="图层_1" xmlns="http://www.w3.org/2000/svg" xmlns:xlink="http://www.w3.org/1999/xlink" x="0px" y="0px"
	 viewBox="0 0 210 210" style="enable-background:new 0 0 210 210;" xml:space="preserve">
<style type="text/css">
	.st0{opacity:0.1;fill:none;stroke:#2B2A28;stroke-width:0.25;stroke-miterlimit:10;}
	.st1{opacity:0.4;}
	.st2{fill:#11C922;}
	.st3{fill:#1BAF2F;}
	.st4{fill:#1F8929;}
	.st5{fill:#2BC132;}
	.st6{fill:#30AA3B;}
	.st7{fill:#308236;}
	.st8{fill:#EDF7ED;}
	.st9{fill:#D1EDD1;}
	.st10{fill:#81A382;}
	.st11{fill:#0ABF53;}
	.st12{fill:#FFFFFF;}
	.st13{fill:#00112C;}
	.st14{fill:#406B44;}
	.st15{opacity:0.3;}
	.st16{fill:#D3F2F2;}
	.st17{fill:#2B2A28;}
	.st18{fill:none;stroke:#0B0C0C;stroke-width:3;stroke-linecap:round;stroke-miterlimit:10;}
	.st19{fill:#111821;}
	.st20{opacity:0.5;fill:none;stroke:#EFDFDF;stroke-width:2.000000e-02;stroke-miterlimit:10;}
	.st21{opacity:0.7;fill:none;stroke:#EFDFDF;stroke-width:2.000000e-02;stroke-miterlimit:10;}
	.st22{opacity:0.6;}
	.st23{opacity:0.6;fill:#FFFFFF;}
	.st24{opacity:0.5;fill:none;}
	.st25{opacity:0.7;fill:none;}
	.st26{fill:none;stroke:#000000;stroke-width:2;stroke-linecap:round;stroke-miterlimit:10;}
	.st27{opacity:0.6;fill:none;stroke:#FFFFFF;stroke-linecap:round;stroke-miterlimit:10;}
	.st28{fill:#99CCCC;}
	.st29{fill:none;}
	.st30{fill:#136D5B;}
	.st31{fill:none;stroke:#0B0C0C;stroke-width:2;stroke-linecap:round;stroke-miterlimit:10;}
	.st32{fill:none;stroke:#000000;stroke-width:3;stroke-miterlimit:10;}
	.st33{opacity:0.5;fill:#FFFFFF;}
	.st34{opacity:0.5;fill:#757373;}
	.st35{opacity:0.7;fill:none;stroke:#E144F2;stroke-linecap:round;stroke-miterlimit:10;}
	.st36{opacity:0.7;fill:none;stroke:#E144F2;stroke-miterlimit:10;}
</style>
<g>
	<g>
		<path class="st12" d="M105,205C49.9,205,5,160.1,5,105S49.9,5,105,5s100,44.9,100,100S160.1,205,105,205z M105,10.4
			c-52.2,0-94.6,42.4-94.6,94.6s42.4,94.6,94.6,94.6s94.6-42.4,94.6-94.6S157.2,10.4,105,10.4z"/>
	</g>
	<g>
		<path class="st12" d="M109.3,176.8c-14.4,0-54.4-12.4-54.4-67.6c-0.1-1-2.1-32.8,16.3-52.5c9.3-10,22-15,37.8-15c0,0,0.1,0,0.1,0
			c27.6,0,39,14.7,39.5,15.3c1.5,2,1.1,4.8-0.9,6.3c-2,1.5-4.8,1.1-6.3-0.9c-0.4-0.4-9.4-11.7-32.3-11.7c0,0-0.1,0-0.1,0
			c-13.2,0-23.7,4.1-31.2,12.1C62.1,79.7,63.9,108.7,63.9,109c0,48.1,33.4,58.9,45.1,58.9c23.3-1.6,26.8-14,27-27.1
			c0.1-5.7,0.1-10.5,0.1-14.3c0-3.4,1.3-6.5,3.6-8.9c2.4-2.4,5.6-3.7,9-3.7h1.7c2,0,3.6-1.6,3.6-3.6v-1.8c0-2-1.6-3.6-3.6-3.6h-27.9
			c-2.5,0-4.5-2-4.5-4.5c0-2.5,2-4.5,4.5-4.5h27.9c7,0,12.6,5.7,12.6,12.6v1.8c0,7-5.7,12.6-12.6,12.6h-1.7c-1,0-1.9,0.4-2.6,1.1
			c-0.7,0.7-1,1.6-1,2.5c0,3.8,0,8.8-0.1,14.5C144.6,163.5,132.9,175.2,109.3,176.8C109.3,176.8,109.3,176.8,109.3,176.8z"/>
	</g>
</g>
</svg>
