<svg id="图层_1" data-name="图层 1" xmlns="http://www.w3.org/2000/svg" viewBox="0 0 370 370"><defs><style>.cls-1{fill:none;}.cls-2{fill:#fff;}</style></defs><title>T</title><circle class="cls-1" cx="185" cy="185" r="176.47"/><path class="cls-2" d="M185,365C85.75,365,5,284.25,5,185S85.75,5,185,5,365,85.75,365,185,284.25,365,185,365Zm0-352.94C89.64,12.06,12.06,89.64,12.06,185S89.64,357.94,185,357.94,357.94,280.36,357.94,185,280.36,12.06,185,12.06Z"/><path class="cls-2" d="M185,170.88a10.59,10.59,0,0,1-10.59-10.59V139.13a24.73,24.73,0,0,1,24.7-24.7h49.42a7.07,7.07,0,0,0,0-14.14H103.82a10.59,10.59,0,0,1,0-21.17H248.53a28.24,28.24,0,0,1,0,56.48H199.11a3.54,3.54,0,0,0-3.53,3.53v21.16A10.59,10.59,0,0,1,185,170.88Z"/><path class="cls-2" d="M209.71,259.12H146.18a10.59,10.59,0,1,1,0-21.18h63.53a10.59,10.59,0,0,0,0-21.18H163.82a28.24,28.24,0,0,1,0-56.47h60a10.59,10.59,0,0,1,0,21.18h-60a7.06,7.06,0,0,0,0,14.12h45.89a31.77,31.77,0,0,1,0,63.53Z"/><path class="cls-2" d="M184.8,290.88a10.59,10.59,0,0,1-10.59-10.59V259.12a10.59,10.59,0,1,1,21.17,0v21.17A10.59,10.59,0,0,1,184.8,290.88Z"/></svg>